<svg width="375" height="109" viewBox="0 0 375 109" fill="none" xmlns="http://www.w3.org/2000/svg">
<path d="M105.185 0H93.4232V51.9984H105.185V0Z" fill="black"/>
<path d="M232.337 0L221.595 28.7485L210.869 0H197.803L215.075 46.2681L217.201 51.9984H226.005L245.403 0H232.337Z" fill="black"/>
<path d="M148.63 0L137.898 28.7485L127.169 0H110.042V51.9984H121.803V20.6593L133.496 51.9984H142.292L154.026 20.5729V51.9984H165.78V0H148.63Z" fill="black"/>
<path d="M30.8733 56.6168V77.8442H11.759V56.6168H0V108.608H11.759V89.0296H30.8733V108.608H42.6298V56.6168H30.8733Z" fill="black"/>
<path d="M213.701 67.8083V56.6168H176.943V108.608H213.701V97.4293H188.702V88.2082H206.108V77.0243H188.702V67.8083H213.701Z" fill="black"/>
<path d="M281.718 11.1935V0H244.96V51.9984H281.718V40.8049H256.724V31.5909H274.13V20.3999H256.724V11.1935H281.718Z" fill="black"/>
<path d="M275.076 76.7935C278.168 76.7935 280.666 79.2997 280.666 82.3867C280.666 85.4758 278.168 87.9799 275.076 87.9799C271.989 87.9799 269.486 85.4758 269.486 82.3867C269.486 79.3002 271.989 76.7935 275.076 76.7935Z" fill="black"/>
<path d="M93.1176 51.9984L82.3759 31.6825C85.819 30.2372 88.2377 26.8324 88.2377 22.8758V9.54461C88.2377 4.27998 83.9578 0 78.7036 0H46.5578V51.9984H58.3111V32.4128H69.0406L79.3905 51.9907H93.1176V51.9984ZM58.3111 11.1935H73.9941C75.6266 11.1935 76.959 12.4658 77.0511 14.0789V18.3871C76.9391 19.9418 75.6676 21.1686 74.0984 21.2243H58.3111V11.1935Z" fill="black"/>
<path d="M264.522 108.601L253.78 88.2877C257.223 86.8476 259.644 83.4402 259.644 79.4806V66.1524C259.644 60.8903 255.361 56.6078 250.108 56.6078H217.958V108.601H229.723V89.0231H240.444L250.793 108.601H264.522V108.601ZM229.723 67.8013H245.402C247.031 67.8013 248.368 69.0762 248.464 70.6872V75C248.347 76.5522 247.07 77.7835 245.499 77.8378H229.723V67.8013Z" fill="black"/>
<path d="M32.1499 0H0V51.9984H11.759V32.4128H32.1438C37.4052 32.4128 41.6836 28.1328 41.6836 22.8707V9.54461C41.6876 4.27998 37.4077 0 32.1499 0ZM11.759 11.1935H27.4445C29.0745 11.1935 30.4084 12.4658 30.5 14.0789V18.3871C30.3879 19.9418 29.1154 21.1706 27.5463 21.2295H11.759V11.1935Z" fill="black"/>
<path d="M333.655 51.9984L322.782 31.4358C325.935 29.8785 328.112 26.6241 328.112 22.8758V9.54461C328.113 4.27998 323.835 0 318.581 0H286.433V51.9984H298.186V32.4128H309.573L319.923 51.9907H333.656L333.655 51.9984ZM298.186 11.1935H313.872C315.499 11.1935 316.831 12.4658 316.933 14.0789V18.3871C316.816 19.9418 315.545 21.1686 313.979 21.2243H298.186V11.1935Z" fill="black"/>
<path d="M101.501 76.1798C101.501 69.9096 106.781 67.7954 109.192 67.7954H126.291V56.6014H109.192C100.113 56.6014 90.3204 64.0876 90.3204 76.1773V89.0295C90.3204 101.127 100.113 108.607 109.192 108.607H126.291V97.4165H109.192C106.781 97.4165 101.501 95.3049 101.501 89.0295V76.1798Z" fill="black"/>
<path d="M177.29 108.608L159.021 74.2285L173.678 56.6168H158.303L142.45 75.6123V56.6168H130.691V108.608H142.45V94.1289L150.69 84.2383L163.593 108.608H177.29Z" fill="black"/>
<path d="M361.929 51.9984H375L355.602 0H346.801L344.67 5.73035L327.405 51.9984H340.473L342.661 45.7466H359.747L361.929 51.9984ZM346.582 34.553L351.203 21.3646L355.821 34.553H346.582Z" fill="black"/>
<path d="M192.991 0H184.196L164.793 51.9984H177.864L180.056 45.7466H197.131L199.318 51.9984H212.394L195.122 5.73035L192.991 0ZM183.972 34.553L188.59 21.3646L193.214 34.553H183.972Z" fill="black"/>
<path d="M73.2718 56.3213H64.4731L45.0724 108.32H58.1361L60.3334 102.068H77.4095L79.6068 108.32H92.6756L73.2718 56.3213ZM64.244 90.8692L68.8671 77.6808L73.4907 90.8692H64.244Z" fill="black"/>
<path d="M354.324 109C350.242 109 346.637 108.309 343.509 106.928C340.381 105.497 337.943 103.523 336.193 101.006C334.497 98.4405 333.648 95.4059 333.648 91.9025H345.02C345.02 93.3828 345.365 94.7397 346.054 95.9733C346.796 97.1576 347.83 98.0951 349.155 98.7859C350.481 99.4274 352.018 99.7481 353.768 99.7481C355.676 99.7481 357.267 99.4027 358.539 98.7119C359.864 97.9717 360.845 96.9849 361.481 95.7513C362.17 94.4684 362.515 93.0621 362.515 91.5324C362.515 89.9041 362.144 88.4731 361.402 87.2395C360.713 86.0059 359.705 85.0437 358.38 84.3529C357.055 83.6621 355.544 83.3167 353.847 83.3167C352.204 83.3167 350.666 83.6868 349.235 84.427C347.856 85.1178 346.77 85.9813 345.974 87.0175L335.875 85.6852L338.181 57.4854H371.421V67.6995H347.803L346.929 78.2837C347.989 77.3462 349.394 76.5073 351.143 75.7672C352.946 75.027 355.066 74.657 357.505 74.657C361.004 74.657 364.052 75.3478 366.65 76.7294C369.301 78.111 371.342 80.0847 372.773 82.6506C374.258 85.2165 375 88.2757 375 91.8285C375 95.2332 374.099 98.2185 372.296 100.784C370.547 103.35 368.108 105.373 364.98 106.854C361.905 108.285 358.353 109 354.324 109Z" fill="black"/>
<path d="M288.563 108.561V106.119C288.563 103.207 289.093 100.691 290.153 98.5691C291.214 96.398 292.99 94.4736 295.481 92.7959L311.306 82.1378C312.897 81.0029 314.143 79.6953 315.044 78.215C315.945 76.7346 316.396 75.1063 316.396 73.33C316.396 71.2082 315.733 69.5305 314.408 68.2969C313.135 67.014 311.147 66.3725 308.444 66.3725C306.853 66.3725 305.422 66.6933 304.149 67.3347C302.93 67.9268 301.976 68.7903 301.287 69.9252C300.597 71.0108 300.253 72.2444 300.253 73.626C300.253 73.9714 300.253 74.3168 300.253 74.6622C300.253 74.9583 300.253 75.2543 300.253 75.5504H288.961C288.961 75.3037 288.961 75.0816 288.961 74.8843C288.961 74.6376 288.961 74.4155 288.961 74.2181C288.961 70.9121 289.729 67.9762 291.267 65.4103C292.857 62.8445 295.11 60.8214 298.026 59.3411C300.995 57.8114 304.494 57.0466 308.523 57.0466H310.352C314.169 57.0466 317.483 57.7374 320.292 59.119C323.102 60.4513 325.276 62.3264 326.813 64.7442C328.404 67.162 329.199 69.9252 329.199 73.0339C329.199 75.5997 328.722 77.8202 327.768 79.6953C326.866 81.5703 325.541 83.2727 323.791 84.8023C322.095 86.3319 320.08 87.8616 317.748 89.3912L308.364 95.3865C307.781 95.7812 307.251 96.1513 306.774 96.4967C306.35 96.8421 305.978 97.1875 305.66 97.5329C305.395 97.8783 305.183 98.2237 305.024 98.5691H329.358V108.561H288.563Z" fill="black"/>
</svg>
