<svg width="423" height="54" viewBox="0 0 423 54" fill="none" xmlns="http://www.w3.org/2000/svg">
<path d="M78.113 0.299148V21.7905H58.9564V0.299148H47.1714V52.9362H58.9564V33.1149H78.113V52.9362H89.8954V0.299148H78.113Z" fill="black"/>
<path d="M261.345 11.6298V0.299148H224.506V52.9362H261.345V41.6191H236.291V32.2833H253.735V20.9604H236.291V11.6298H261.345Z" fill="black"/>
<path d="M322.856 21.1031C325.954 21.1031 328.457 23.6404 328.457 26.7658C328.457 29.8933 325.954 32.4285 322.856 32.4285C319.761 32.4285 317.253 29.8933 317.253 26.7658C317.253 23.6409 319.761 21.1031 322.856 21.1031Z" fill="black"/>
<path d="M312.278 52.9292L301.512 32.3638C304.963 30.9057 307.389 27.456 307.389 23.4472V9.9533C307.389 4.62581 303.097 0.290037 297.832 0.290037H265.611V52.9297H277.402V33.1084H288.146L298.519 52.9297H312.278V52.9292ZM277.402 11.6227H293.116C294.748 11.6227 296.088 12.9134 296.184 14.5445V18.9109C296.067 20.4824 294.787 21.729 293.213 21.7839H277.402V11.6227Z" fill="black"/>
<path d="M32.221 0H0V52.6448H11.785V32.8157H32.2148C37.4878 32.8157 41.7757 28.4825 41.7757 23.155V9.66327C41.7798 4.33318 37.4904 0 32.221 0ZM11.785 11.3327H27.5051C29.1387 11.3327 30.4756 12.6208 30.5673 14.254V18.6156C30.4551 20.1897 29.1798 21.4338 27.6071 21.4934H11.785V11.3327Z" fill="black"/>
<path d="M148.897 20.1054C148.897 13.7572 154.188 11.6167 156.604 11.6167H173.741V0.283529H156.604C147.506 0.283529 137.691 7.86285 137.691 20.1028V33.1148C137.691 45.3625 147.506 52.9361 156.604 52.9361H173.741V41.606H156.604C154.189 41.606 148.897 39.4682 148.897 33.1148V20.1054Z" fill="black"/>
<path d="M224.853 52.9362L206.544 18.1298L221.233 0.299148H205.824L189.936 19.5309V0.299148H178.151V52.9362H189.936V38.2776L198.194 28.2641L211.126 52.9362H224.853Z" fill="black"/>
<path d="M120.605 0H111.787L92.3434 52.6448H105.436L107.638 46.3153H124.752L126.954 52.6448H140.052L120.605 0ZM111.557 34.9774L116.191 21.625L120.825 34.9774H111.557Z" fill="black"/>
<path d="M402.279 54C398.187 54 394.574 53.3006 391.44 51.9018C388.305 50.4531 385.861 48.4548 384.107 45.907C382.407 43.3092 381.557 40.2369 381.557 36.6899H392.954C392.954 38.1886 393.299 39.5625 393.99 40.8114C394.734 42.0103 395.77 42.9595 397.098 43.6589C398.426 44.3084 399.967 44.6331 401.721 44.6331C403.633 44.6331 405.227 44.2834 406.503 43.584C407.831 42.8346 408.814 41.8355 409.451 40.5866C410.142 39.2877 410.487 37.8639 410.487 36.3153C410.487 34.6667 410.116 33.2179 409.372 31.969C408.681 30.7201 407.671 29.7459 406.343 29.0465C405.015 28.3471 403.501 27.9974 401.8 27.9974C400.153 27.9974 398.612 28.3721 397.178 29.1215C395.796 29.8209 394.707 30.6951 393.91 31.7442L383.789 30.3954L386.1 1.845H419.414V12.1861H395.743L394.867 22.9018C395.929 21.9527 397.337 21.1034 399.091 20.354C400.897 19.6047 403.022 19.23 405.466 19.23C408.973 19.23 412.028 19.9294 414.632 21.3282C417.288 22.727 419.334 24.7253 420.768 27.323C422.256 29.9208 423 33.0181 423 36.615C423 40.062 422.097 43.0844 420.29 45.6822C418.537 48.2799 416.093 50.3282 412.958 51.8269C409.876 53.2756 406.317 54 402.279 54Z" fill="black"/>
<path d="M336.372 52.8893V50.4164C336.372 47.469 336.903 44.9212 337.966 42.773C339.029 40.5749 340.809 38.6266 343.306 36.9281L359.166 26.1374C360.76 24.9884 362.008 23.6645 362.911 22.1658C363.815 20.6671 364.266 19.0185 364.266 17.2201C364.266 15.0719 363.602 13.3734 362.274 12.1245C360.999 10.8256 359.006 10.1762 356.297 10.1762C354.703 10.1762 353.268 10.5009 351.993 11.1503C350.771 11.7498 349.814 12.6241 349.124 13.7731C348.433 14.8721 348.088 16.121 348.088 17.5198C348.088 17.8695 348.088 18.2192 348.088 18.5689C348.088 18.8687 348.088 19.1684 348.088 19.4681H336.771C336.771 19.2184 336.771 18.9936 336.771 18.7937C336.771 18.5439 336.771 18.3191 336.771 18.1193C336.771 14.7722 337.541 11.7998 339.082 9.20201C340.676 6.60425 342.934 4.55602 345.856 3.05731C348.832 1.50865 352.338 0.734313 356.376 0.734313H358.209C362.035 0.734313 365.356 1.43371 368.172 2.8325C370.988 4.18134 373.166 6.0797 374.707 8.52759C376.301 10.9755 377.098 13.7731 377.098 16.9203C377.098 19.5181 376.62 21.7662 375.663 23.6645C374.76 25.5629 373.432 27.2864 371.678 28.8351C369.978 30.3837 367.959 31.9324 365.621 33.4811L356.217 39.5508C355.632 39.9505 355.101 40.3252 354.623 40.6748C354.198 41.0245 353.826 41.3742 353.507 41.7239C353.241 42.0736 353.029 42.4233 352.87 42.773H377.257V52.8893H336.372Z" fill="black"/>
</svg>
